<svg width="16" height="16" viewBox="0 0 16 16" fill="none" xmlns="http://www.w3.org/2000/svg">
<path fill-rule="evenodd" clip-rule="evenodd" d="M10.7118 6.94063C11.41 7.47429 11.4101 8.52568 10.7118 9.05934L7.65853 11.393C6.78113 12.0636 5.51554 11.4379 5.51553 10.3336V5.66636C5.51553 4.56205 6.78113 3.93642 7.65853 4.60701L10.7118 6.94063ZM9.90216 7.99999L6.84887 5.66636L6.84887 10.3336L9.90216 7.99999Z" fill="#FF3F3A"/>
<path fill-rule="evenodd" clip-rule="evenodd" d="M7.99996 1.99996C4.68625 1.99996 1.99996 4.68625 1.99996 7.99996C1.99996 11.3137 4.68625 14 7.99996 14C11.3137 14 14 11.3137 14 7.99996C14 4.68625 11.3137 1.99996 7.99996 1.99996ZM0.666626 7.99996C0.666626 3.94987 3.94987 0.666626 7.99996 0.666626C12.05 0.666626 15.3333 3.94987 15.3333 7.99996C15.3333 12.05 12.05 15.3333 7.99996 15.3333C3.94987 15.3333 0.666626 12.05 0.666626 7.99996Z" fill="#FF3F3A"/>
</svg>
