<svg width="16" height="15" viewBox="0 0 16 15" fill="none" xmlns="http://www.w3.org/2000/svg">
<path fill-rule="evenodd" clip-rule="evenodd" d="M6.77956 1.4677C7.24272 0.399602 8.75744 0.3996 9.2206 1.4677L10.6217 4.6987L14.1275 5.03277C15.2864 5.1432 15.7545 6.58378 14.8818 7.35434L12.2419 9.68528L13.0076 13.1227C13.2607 14.2591 12.0352 15.1494 11.0327 14.5576L8.00008 12.7671L4.96745 14.5576C3.96493 15.1494 2.7395 14.2591 2.99261 13.1227L3.75825 9.68528L1.11834 7.35434C0.245643 6.58378 0.713714 5.1432 1.87266 5.03277L5.37848 4.6987L6.77956 1.4677ZM9.40116 5.22796L8.00008 1.99696L6.59901 5.22796C6.40624 5.6725 5.98703 5.97708 5.50468 6.02304L1.99886 6.3571L4.63877 8.68804C5.00198 9.00874 5.1621 9.50156 5.05676 9.9745L4.29112 13.412L7.32375 11.6216C7.74099 11.3752 8.25917 11.3752 8.67641 11.6216L11.709 13.412L10.9434 9.9745C10.8381 9.50156 10.9982 9.00874 11.3614 8.68804L14.0013 6.3571L10.4955 6.02304C10.0131 5.97708 9.59392 5.6725 9.40116 5.22796Z" fill="#FF3F3A"/>
</svg>
