<svg width="14" height="16" viewBox="0 0 14 16" fill="none" xmlns="http://www.w3.org/2000/svg">
<path fill-rule="evenodd" clip-rule="evenodd" d="M7.00012 2.16671C5.71145 2.16671 4.66679 3.21138 4.66679 4.50004C4.66679 5.78871 5.71145 6.83337 7.00012 6.83337C8.28878 6.83337 9.33345 5.78871 9.33345 4.50004C9.33345 3.21138 8.28878 2.16671 7.00012 2.16671ZM3.33345 4.50004C3.33345 2.475 4.97508 0.833374 7.00012 0.833374C9.02516 0.833374 10.6668 2.475 10.6668 4.50004C10.6668 6.52508 9.02516 8.16671 7.00012 8.16671C4.97508 8.16671 3.33345 6.52508 3.33345 4.50004Z" fill="#FF3F3A"/>
<path fill-rule="evenodd" clip-rule="evenodd" d="M3.06949 10.1667C2.60728 10.1667 2.24601 10.3918 2.09936 10.7151C1.89639 11.1627 1.71258 11.6955 1.66921 12.2008C1.64982 12.4267 1.74402 12.5932 1.8738 12.6738C2.55991 13.1 4.14971 13.8334 7.00012 13.8334C9.85052 13.8334 11.4403 13.1 12.1264 12.6738C12.2562 12.5932 12.3504 12.4267 12.331 12.2008C12.2877 11.6955 12.1039 11.1627 11.9009 10.7151C11.7542 10.3918 11.393 10.1667 10.9307 10.1667H3.06949ZM0.885072 10.1644C1.29037 9.27075 2.19539 8.83337 3.06949 8.83337H10.9307C11.8048 8.83337 12.7099 9.27075 13.1152 10.1644C13.348 10.6777 13.5978 11.3677 13.6595 12.0868C13.7157 12.7416 13.4435 13.4253 12.83 13.8064C11.9277 14.367 10.0932 15.1667 7.00012 15.1667C3.90705 15.1667 2.07259 14.367 1.17023 13.8064C0.556721 13.4253 0.284561 12.7416 0.340764 12.0868C0.402482 11.3677 0.652281 10.6777 0.885072 10.1644Z" fill="#FF3F3A"/>
</svg>
