<svg width="16" height="16" viewBox="0 0 16 16" fill="none" xmlns="http://www.w3.org/2000/svg">
<path d="M8 15.3334C12.0434 15.3334 15.3333 12.0437 15.3333 8.00002C15.3333 7.30208 15.2359 6.61428 15.043 5.95557C14.948 5.63167 14.6097 5.44562 14.2849 5.54066C13.9607 5.6354 13.7753 5.97482 13.87 6.29873C14.0298 6.84598 14.1111 7.4186 14.1111 8.00002C14.1111 11.3696 11.3696 14.1111 8 14.1111C4.63039 14.1111 1.88889 11.3696 1.88889 8.00002C1.88889 4.6304 4.63039 1.88891 8 1.88891C9.22461 1.88891 10.4028 2.24698 11.4072 2.92419C11.6868 3.11292 12.067 3.03877 12.2554 2.75918C12.444 2.47928 12.3704 2.09943 12.0905 1.91084C10.8835 1.09697 9.46915 0.666687 8 0.666687C3.95662 0.666687 0.666672 3.95633 0.666672 8.00002C0.666672 12.0437 3.95662 15.3334 8 15.3334Z" fill="#FF3F3A"/>
<path d="M14.8619 1.52854L7.99988 8.3902L5.80457 6.19521C5.54415 5.93496 5.12228 5.93496 4.86186 6.19521C4.60161 6.45563 4.60161 6.8775 4.86186 7.13792L7.52853 9.80459C7.6589 9.93496 7.82915 9.9999 7.99988 9.9999C8.17062 9.9999 8.34087 9.93496 8.47124 9.80459L15.8046 2.47125C16.0648 2.21084 16.0648 1.78896 15.8046 1.52854C15.5442 1.26829 15.1223 1.26829 14.8619 1.52854Z" fill="#FF3F3A"/>
</svg>
